<?xml version="1.0" encoding="UTF-8" standalone="no"?>
<!-- Created with Inkscape (http://www.inkscape.org/) -->

<svg
   width="150.50104mm"
   height="202.2267mm"
   viewBox="0 0 150.50104 202.2267"
   version="1.1"
   id="svg1"
   xml:space="preserve"
   inkscape:version="1.4 (e7c3feb1, 2024-10-09)"
   sodipodi:docname="cat_icon.svg"
   xmlns:inkscape="http://www.inkscape.org/namespaces/inkscape"
   xmlns:sodipodi="http://sodipodi.sourceforge.net/DTD/sodipodi-0.dtd"
   xmlns="http://www.w3.org/2000/svg"
   xmlns:svg="http://www.w3.org/2000/svg"><sodipodi:namedview
     id="namedview1"
     pagecolor="#ffffff"
     bordercolor="#000000"
     borderopacity="0.25"
     inkscape:showpageshadow="2"
     inkscape:pageopacity="0.0"
     inkscape:pagecheckerboard="0"
     inkscape:deskcolor="#d1d1d1"
     inkscape:document-units="mm"
     inkscape:zoom="0.38396449"
     inkscape:cx="316.43551"
     inkscape:cy="701.88782"
     inkscape:window-width="1472"
     inkscape:window-height="892"
     inkscape:window-x="0"
     inkscape:window-y="64"
     inkscape:window-maximized="0"
     inkscape:current-layer="layer1" /><defs
     id="defs1" /><g
     inkscape:label="Layer 1"
     inkscape:groupmode="layer"
     id="layer1"
     transform="translate(-33.999525,-35.847155)"><path
       style="fill:#164450"
       d="m 95.230403,238.02586 c -0.08354,-0.0883 -2.167133,-0.17875 -4.630208,-0.20099 -2.463076,-0.0222 -4.835507,-0.15034 -5.272069,-0.28465 -0.436563,-0.13432 -1.829636,-0.23037 -3.095717,-0.21346 -1.992171,0.0266 -2.37495,-0.0422 -2.844271,-0.51154 -0.298267,-0.29827 -0.542304,-0.41906 -0.542304,-0.26842 0,0.18529 -0.171948,0.18187 -0.531538,-0.0106 -0.292346,-0.15646 -0.976955,-0.2687 -1.521354,-0.24942 -0.842134,0.0298 -6.402259,-0.384 -8.909612,-0.66313 -0.740172,-0.0824 -0.967072,-0.27376 -1.633745,-1.3779 -0.280998,-0.46539 -0.343764,-0.46019 -1.51714,0.12583 -1.085092,0.54192 -1.307076,0.57161 -1.955833,0.26163 -0.857686,-0.4098 -1.071924,-1.28972 -0.462417,-1.89922 0.567077,-0.56708 2.449771,-0.56522 3.077686,0.003 0.441035,0.39913 0.491206,0.39936 0.643351,0.003 0.268118,-0.6987 2.955208,-1.20783 9.319077,-1.76572 1.683764,-0.1476 3.102388,-0.30937 3.152498,-0.35948 0.05011,-0.0501 -0.380917,-0.97041 -0.957839,-2.04511 -0.576922,-1.07469 -1.293668,-2.57998 -1.592767,-3.34507 -1.24798,-3.19232 -2.900556,-9.66806 -3.594937,-14.08704 -0.08003,-0.50933 -0.493927,-2.89058 -0.919766,-5.29167 -0.425838,-2.40109 -0.903487,-5.31812 -1.061441,-6.48229 -1.239604,-9.13622 -2.309545,-19.01144 -2.536992,-23.41563 -0.101454,-1.96453 -0.208543,-3.86953 -0.237975,-4.23333 -0.02943,-0.3638 -0.07215,-4.19799 -0.09493,-8.52043 l -0.04141,-7.85897 -1.12448,-0.51039 c -1.111059,-0.5043 -4.048891,-3.27463 -5.377215,-5.07062 -0.841283,-1.13749 -2.342402,-4.06077 -2.954475,-5.75355 -0.573912,-1.58725 -0.644794,-8.31729 -0.114961,-10.9152 0.19291,-0.94589 0.47233,-2.31511 0.620934,-3.04271 0.837004,-4.09818 6.370221,-20.9935 7.747835,-23.65751 0.214325,-0.41446 0.919367,-2.29997 1.56676,-4.19002 0.647393,-1.89006 1.419123,-3.91091 1.714956,-4.49079 l 0.537879,-1.054329 -1.462507,-2.089092 c -0.804379,-1.149 -2.102795,-3.398779 -2.88537,-4.999508 -1.245693,-2.548022 -1.685301,-3.867333 -2.367402,-7.104822 -0.185913,-0.882407 -0.03665,-0.89229 -5.294662,0.350553 -3.445491,0.814415 -4.690382,0.820582 -5.534814,0.02742 -0.745451,-0.700191 -0.890691,-1.751374 -0.345081,-2.49754 0.401884,-0.549609 1.320447,-0.782697 5.879895,-1.492043 1.89177,-0.294316 3.737239,-0.596064 4.101041,-0.670553 0.651857,-0.133466 0.661973,-0.175571 0.696893,-2.90051 l 0.03543,-2.765078 -1.490643,0.0078 c -2.954237,0.01544 -7.67489,-0.285802 -8.31957,-0.530909 -1.439565,-0.547322 -1.932355,-2.238025 -0.941209,-3.229171 0.550848,-0.550849 0.684265,-0.559704 5.622395,-0.373174 2.781987,0.105085 5.167101,0.210164 5.300253,0.233509 0.133152,0.02334 0.387869,-0.867646 0.566037,-1.979977 0.889841,-5.55541 4.521077,-14.718512 8.792445,-22.186953 2.843357,-4.97158 4.094494,-6.473225 6.145427,-7.375891 2.122674,-0.934242 4.234653,-0.159086 9.899019,3.63322 1.44445,0.967063 2.771625,1.869005 2.949277,2.004315 0.203967,0.155354 0.931454,0.101609 1.974024,-0.145837 l 1.65102,-0.391856 0.697332,-1.97563 c 0.83086,-2.353932 1.540242,-3.622804 2.309551,-4.131099 0.507204,-0.335116 0.638819,-0.310861 1.270623,0.234157 0.953323,0.822373 1.246713,2.257502 0.804343,3.934453 -0.33375,1.265187 -0.326479,1.319491 0.15835,1.182623 0.27949,-0.0789 0.73596,-0.207733 1.01439,-0.286295 0.27842,-0.07856 0.9876,-0.910591 1.57595,-1.848952 1.02805,-1.639638 2.34539,-2.767634 3.23462,-2.769718 1.06178,-0.0025 1.70601,2.00016 1.17829,3.662836 -0.1766,0.556435 -0.11809,0.570291 2.54906,0.603625 3.06291,0.03828 3.60415,0.07075 5.11106,0.306639 5.4837,0.858399 6.78158,1.112678 7.88232,1.544306 l 1.26774,0.497112 2.98039,-2.100409 c 4.68363,-3.300752 8.30886,-4.792108 10.22684,-4.207144 3.20946,0.978852 8.7803,10.219693 12.81394,21.255586 0.90292,2.470374 2.43998,8.13943 2.58252,9.525 0.0946,0.919661 -0.4301,0.87468 6.5179,0.558755 3.72442,-0.16935 4.40794,-0.138511 4.96094,0.223829 0.69234,0.453644 0.84042,1.393808 0.36069,2.290183 -0.4849,0.906048 -1.44598,1.125248 -6.07651,1.385908 -0.6588,0.03708 -1.33518,0.152324 -1.50308,0.256087 -0.16789,0.103763 -0.37395,0.07751 -0.45791,-0.05834 -0.0916,-0.148216 -0.49572,-0.154839 -1.01047,-0.01656 -0.4718,0.12674 -1.09594,0.206182 -1.38698,0.176536 -0.48574,-0.04948 -0.54267,0.152397 -0.69368,2.459641 -0.0905,1.382448 -0.13749,2.545904 -0.10447,2.585459 0.033,0.03955 2.13111,0.368584 4.66243,0.731177 2.53131,0.362593 4.99313,0.836128 5.47071,1.052301 1.51424,0.685411 1.63977,2.101276 0.2726,3.074787 -0.64764,0.461159 -1.03309,0.530573 -2.28298,0.411137 -0.82708,-0.07903 -1.80143,-0.204038 -2.16524,-0.277787 -0.3638,-0.07375 -1.67349,-0.316743 -2.91041,-0.539987 -1.23693,-0.223244 -2.50966,-0.481171 -2.82828,-0.57317 -0.53621,-0.154823 -0.64205,0.03654 -1.42215,2.571384 -0.46355,1.506261 -1.13182,3.434482 -1.48505,4.284934 -0.62419,1.502876 -1.01445,2.164536 -3.95191,6.700157 -1.25847,1.943173 -1.35651,2.196556 -0.97246,2.513542 0.60365,0.498247 1.30848,2.241336 1.52568,3.773103 0.10169,0.71714 1.05332,3.33652 2.11473,5.82083 1.87549,4.38972 3.37445,8.70721 4.66797,13.44528 0.34742,1.27258 0.70213,2.31438 0.78823,2.31511 0.0861,7.3e-4 0.30049,-0.47908 0.47641,-1.06624 0.4844,-1.61679 3.37729,-4.54516 5.54367,-5.61166 1.54441,-0.76031 1.99878,-0.86006 3.87197,-0.84997 1.79408,0.01 2.35811,0.12912 3.64772,0.77257 1.78355,0.88988 3.978,3.09602 4.69745,4.72247 2.81577,6.3655 1.75673,14.70734 -3.38213,26.64041 -0.53415,1.24036 -2.24315,4.20914 -3.73158,6.48229 -4.41927,6.74917 -10.66436,12.80042 -15.34825,14.87186 -0.81844,0.36195 -1.51783,0.64643 -1.55421,0.63218 -0.0364,-0.0143 -0.0959,-0.0168 -0.13229,-0.006 -0.0364,0.0111 -0.28542,0.0617 -0.55341,0.11243 -0.268,0.0507 -0.54876,0.15369 -0.62391,0.22884 -0.0752,0.0752 -0.17948,1.24495 -0.23184,2.59954 -0.0524,1.3546 -0.16212,4.24884 -0.24392,6.43165 -0.16592,4.42786 -0.3219,7.28569 -0.50543,9.26042 -0.32648,3.51273 -0.43419,4.57895 -0.56131,5.55625 -0.0757,0.58208 -0.18812,1.47505 -0.24981,1.98437 -0.34388,2.83902 -2.31887,15.75095 -2.89362,18.91771 -1.17054,6.44934 -3.01818,12.23298 -4.74379,14.84943 l -0.8941,1.35569 1.61645,0.16747 c 0.88905,0.0921 2.33083,0.23024 3.20396,0.30694 4.47251,0.39293 9.46034,0.92583 9.62644,1.02848 0.10327,0.0638 1.25379,0.14098 2.55671,0.17144 2.75325,0.0644 3.55956,0.3376 3.55956,1.20622 0,0.81305 -1.16143,1.40317 -2.50529,1.27294 -0.5686,-0.0551 -1.17754,0.0191 -1.3532,0.16488 -0.17566,0.14579 -1.40996,0.31738 -2.74288,0.38133 -1.33292,0.0639 -2.52315,0.17785 -2.64494,0.25313 -0.1218,0.0753 -0.68314,0.17845 -1.24742,0.22927 -0.56428,0.0508 -1.2915,0.23453 -1.61604,0.40822 -0.60313,0.32279 -4.64834,0.64872 -7.73398,0.62315 -2.39218,-0.0198 -2.4976,-0.0183 -5.07814,0.075 -1.26501,0.0457 -2.51517,0.14812 -2.77813,0.22761 -0.26296,0.0795 -3.33561,0.21916 -6.82811,0.31038 -3.4925,0.0912 -6.88578,0.20838 -7.54062,0.26036 -2.40766,0.19112 -20.51012,0.44453 -20.657093,0.28917 z m -7.916316,-7.97148 c 1.176668,-0.60848 2.775517,-3.2766 3.724535,-6.21543 0.880824,-2.72765 2.242122,-8.10386 2.500586,-9.87562 0.08874,-0.60832 0.561743,-3.18964 1.051115,-5.73625 0.489372,-2.54661 1.261644,-6.65427 1.716161,-9.12812 0.454516,-2.47386 0.888979,-4.75416 0.965472,-5.06734 0.114237,-0.46771 -0.0083,-0.60178 -0.685821,-0.75059 -1.044994,-0.22952 -1.685329,-1.16117 -1.448003,-2.10675 0.347939,-1.3863 0.565946,-1.41608 10.298328,-1.40666 4.94771,0.005 10.09046,-0.0787 11.42834,-0.18554 2.37609,-0.18973 2.4482,-0.17855 3.10886,0.48211 0.37198,0.37198 0.67634,0.97076 0.67634,1.33062 0,0.78468 -1.11996,1.75102 -2.02937,1.75102 -0.5224,0 -0.59133,0.0822 -0.38846,0.46302 0.26361,0.49491 2.07461,8.69986 2.93455,13.29531 0.90162,4.8182 2.9103,14.36383 3.32059,15.78008 0.89619,3.09351 2.26497,5.8639 3.42592,6.93404 1.04084,0.95941 1.24726,1.04241 2.42728,0.97605 0.70933,-0.0399 1.52782,-0.13864 1.81886,-0.21944 0.29104,-0.0808 0.61403,-0.15602 0.71775,-0.16715 0.10372,-0.0111 0.68209,-0.74697 1.28527,-1.6352 1.08131,-1.59229 2.21939,-4.31871 3.17502,-7.60616 0.76095,-2.6177 2.55327,-11.73581 2.99821,-15.25284 0.22092,-1.74625 0.69668,-5.43719 1.05724,-8.20208 0.36056,-2.7649 0.72836,-5.92006 0.81733,-7.01146 0.089,-1.09141 0.21097,-2.22552 0.27111,-2.52026 0.0601,-0.29473 0.3014,-2.85457 0.53611,-5.68854 0.73871,-8.9195 0.50531,-33.18072 -0.41483,-43.12037 -0.4024,-4.3469 -0.47818,-4.9584 -1.02763,-8.2931 -0.28398,-1.72355 -0.45563,-3.29193 -0.38143,-3.48529 0.0742,-0.19336 0.54695,-0.5471 1.05056,-0.78607 0.7541,-0.35785 1.07891,-0.38063 1.84099,-0.12912 1.31531,0.43409 1.64343,1.12231 1.82601,3.83004 0.0883,1.30969 0.26516,3.15516 0.393,4.10104 0.12783,0.94589 0.24375,2.19605 0.25759,2.77813 0.0138,0.58208 0.0743,1.53458 0.13438,2.11667 0.0601,0.58208 0.19172,3.02286 0.29257,5.42395 0.10084,2.4011 0.21318,4.39985 0.24963,4.44168 0.0365,0.0418 0.36645,-0.0607 0.73331,-0.22787 0.44519,-0.20284 1.14743,-1.19609 2.11147,-2.98647 2.25753,-4.19259 2.62071,-5.3788 2.68449,-8.76796 0.0301,-1.60073 -0.053,-3.4462 -0.18463,-4.10104 -1.74898,-8.69813 -7.67475,-26.69177 -8.7985,-26.71668 -0.15467,-0.003 -0.62343,0.35095 -1.04168,0.78751 -0.41826,0.43656 -0.87068,0.79375 -1.00538,0.79375 -0.1347,0 -0.61844,0.3057 -1.07498,0.67934 -0.90209,0.73829 -8.89689,6.02498 -11.37627,7.52274 -0.84312,0.50933 -2.56561,1.56797 -3.82775,2.35254 -3.22195,2.00282 -3.51187,2.14192 -4.4684,2.14375 -1.01992,0.002 -2.30239,-1.04157 -3.84294,-3.12693 l -1.05401,-1.42676 -0.45768,1.02089 c -0.25173,0.56149 -0.65371,1.1831 -0.8933,1.38136 -0.23958,0.19826 -0.67154,0.74222 -0.95989,1.20879 -0.42914,0.69436 -0.47813,1.0155 -0.26992,1.76955 0.47538,1.72167 3.68342,21.1461 5.01998,30.39556 0.28387,1.96453 0.65312,4.24923 0.82055,5.0771 0.16742,0.82788 0.22844,1.80792 0.13558,2.17788 -0.0928,0.36996 -1.55298,2.13339 -3.24472,3.91873 -1.69174,1.78535 -3.52026,3.84544 -4.06336,4.578 -1.32648,1.78917 -2.78723,3.03371 -3.56074,3.03371 -1.23272,0 -1.8965,-0.49792 -4.24756,-3.18621 -1.30627,-1.49365 -3.35559,-3.8163 -4.554041,-5.16145 -1.198448,-1.34515 -2.291262,-2.74101 -2.428475,-3.10191 -0.252735,-0.66474 0.134882,-4.12327 1.311449,-11.70147 0.737536,-4.75043 1.274112,-8.2942 1.422187,-9.39271 0.0686,-0.50932 0.49316,-3.42635 0.94336,-6.48229 0.45019,-3.05594 0.98377,-6.79544 1.18574,-8.31001 l 0.3672,-2.75376 -1.15453,-1.4173 c -0.63499,-0.77952 -1.23306,-1.66474 -1.32904,-1.96716 -0.154368,-0.48636 -0.276151,-0.39894 -1.054607,0.757 -1.183447,1.75732 -2.271918,2.62458 -3.569061,2.84373 -0.932536,0.15755 -1.279444,0.062 -2.552983,-0.70279 -0.810592,-0.48682 -1.555608,-0.86324 -1.65559,-0.83649 -0.09998,0.0267 -0.698434,-0.36021 -1.329892,-0.8599 -0.631459,-0.49969 -1.334353,-0.90853 -1.561988,-0.90853 -0.389896,0 -3.027666,-1.56142 -6.919982,-4.09627 -0.945885,-0.61601 -2.61276,-1.6346 -3.704166,-2.26353 -1.091406,-0.62894 -2.2225,-1.34635 -2.513542,-1.59425 -0.291041,-0.24789 -0.945885,-0.65975 -1.455208,-0.91523 -0.509323,-0.25548 -1.317137,-0.80519 -1.795144,-1.22157 -1.069652,-0.93176 -1.379856,-0.95177 -1.379856,-0.089 0,0.36743 -0.399981,1.46876 -0.888847,2.44739 -0.488865,0.97864 -1.160114,2.61277 -1.491663,3.63142 -0.331549,1.01865 -0.84598,2.32833 -1.14318,2.91042 -0.2972,0.58208 -0.945268,2.36802 -1.440152,3.96875 -0.494884,1.60073 -1.193378,3.86291 -1.552208,5.02708 -1.177435,3.81999 -2.227574,9.69608 -2.281891,12.7684 l -0.05024,2.84202 1.235359,2.72714 c 1.066846,2.35514 3.995007,6.89558 4.463677,6.92142 0.08698,0.005 0.240173,-2.115 0.340434,-4.71067 0.100261,-2.59567 0.228308,-5.00669 0.284548,-5.35781 0.0927,-0.57874 0.567157,-4.21456 0.808382,-6.19467 0.843602,-6.92477 1.363154,-8.09996 3.294357,-7.45163 1.659438,0.55709 1.786202,1.1705 1.110358,5.37302 -0.324268,2.01636 -0.699495,4.9758 -0.833837,6.57653 -0.134342,1.60073 -0.365762,4.10104 -0.514266,5.55625 -0.490002,4.8016 -0.574142,6.29825 -0.647044,11.50937 -0.06867,4.90855 0.123815,11.61028 0.482552,16.80104 0.742882,10.74917 1.6117,19.3673 2.400605,23.8125 0.206609,1.16417 0.925824,5.45042 1.598256,9.525 1.164363,7.05543 2.562351,13.31368 3.812176,17.06563 0.818898,2.45831 2.502208,5.85736 3.226304,6.51476 1.242688,1.12822 2.881269,1.31054 4.456661,0.49587 z m -11.84384,-45.64884 c -0.951206,-0.38223 -1.239684,-1.31459 -0.761123,-2.45994 0.483187,-1.15643 1.353945,-1.30392 2.21558,-0.37529 0.854214,0.92064 0.876995,1.77174 0.06905,2.57969 -0.586422,0.58642 -0.666613,0.59987 -1.523504,0.25554 z m -0.972878,-7.64491 c -0.500516,-0.55307 -0.392758,-1.33974 0.257431,-1.87935 0.51547,-0.42781 1.891126,0.12297 2.121709,0.84947 0.209248,0.65928 -0.555957,1.54008 -1.337966,1.54008 -0.318694,0 -0.787223,-0.22959 -1.041174,-0.5102 z m -0.625701,-7.48021 c -0.681395,-0.6814 -0.267476,-2.06375 0.61795,-2.06375 0.626717,0 1.4458,0.62013 1.4458,1.09462 0,1.06402 -1.339727,1.69315 -2.06375,0.96913 z m 0.211667,-6.29709 c -0.590832,-0.59083 -0.661726,-1.11001 -0.255275,-1.86948 0.357279,-0.66758 1.431246,-0.65871 2.107358,0.0174 0.636832,0.63683 0.661635,1.01605 0.117288,1.79321 -0.511278,0.72995 -1.275448,0.7528 -1.969371,0.0589 z m 0.264583,-5.55625 c -0.603114,-0.60311 -0.62851,-0.76259 -0.271132,-1.70256 0.327469,-0.86131 1.358022,-0.90991 2.112908,-0.0996 1.412508,1.51615 -0.376884,3.26708 -1.841776,1.80219 z m 0.264583,-5.29166 c -0.291042,-0.29105 -0.529166,-0.68127 -0.529166,-0.86717 0,-0.65047 0.827635,-1.51408 1.451007,-1.51408 0.701825,0 1.814749,1.21135 1.547851,1.68474 -0.73549,1.30453 -1.613929,1.55227 -2.469692,0.69651 z m 0.852622,-7.02646 c -0.714686,-0.50059 -0.750271,-1.18124 -0.103512,-1.97995 0.610226,-0.7536 1.672349,-0.56004 2.10206,0.38308 0.245477,0.53876 0.204743,0.76586 -0.238426,1.32926 -0.618953,0.78687 -0.947463,0.83681 -1.760122,0.26761 z m 0.543672,-6.23517 c -0.409546,-0.40954 0.128525,-1.55504 0.730445,-1.55504 0.733041,0 1.136208,0.66421 0.792729,1.306 -0.31943,0.59686 -1.055076,0.71714 -1.523174,0.24904 z m 60.710045,-24.68088 c -0.57934,-0.43962 -0.39228,-0.9867 0.47556,-1.39088 0.56121,-0.26137 0.69902,-0.23429 0.9213,0.18104 0.14376,0.26862 0.26138,0.73435 0.26138,1.03495 0,0.64334 -0.91389,0.73973 -1.65824,0.17489 z m 3.79118,-1.46414 c -0.6713,-0.6713 -0.76961,-2.39752 -0.13654,-2.39752 0.7284,0 1.74986,1.26447 1.65871,2.05332 -0.10497,0.90838 -0.80068,1.06569 -1.52217,0.3442 z m 2.62301,-2.28245 c -0.36475,-0.95936 -0.32056,-1.43798 0.13274,-1.43798 0.53481,0 1.24671,1.14937 1.04213,1.68251 -0.25078,0.65352 -0.8835,0.52183 -1.17487,-0.24453 z m -33.06636,119.77135 c 5.02046,0.01 9.93052,0.0281 10.91124,0.0407 0.98071,0.0126 1.84936,-0.0433 1.93032,-0.12424 0.081,-0.081 -0.32497,-1.08434 -0.90207,-2.22973 -0.57709,-1.14539 -1.3005,-2.9755 -1.60758,-4.0669 -0.82207,-2.92179 -3.13652,-13.66954 -3.73194,-17.33021 -0.28403,-1.74625 -0.76734,-4.34855 -1.07402,-5.78288 -0.30667,-1.43433 -0.69827,-3.57746 -0.8702,-4.7625 -0.27496,-1.89509 -0.375,-2.14699 -0.83054,-2.09129 -0.28486,0.0348 -3.19683,0.12393 -6.47105,0.19798 l -5.95312,0.13465 -0.18571,0.99265 c -0.10213,0.54595 -0.55558,3.13576 -1.00765,5.75514 -2.885356,16.71833 -4.507326,23.33934 -6.775545,27.65833 -0.417623,0.79521 -0.789722,1.50536 -0.826886,1.57813 -0.03717,0.0728 1.807622,0.10532 4.099525,0.0724 2.291904,-0.0329 8.274756,-0.0519 13.295226,-0.0422 z m 39.74485,-66.10986 c 0.90505,-0.69122 1.92266,-1.52466 2.26134,-1.85208 0.33867,-0.32742 0.7093,-0.59531 0.82362,-0.59531 0.11432,0 0.37621,-0.31459 0.58198,-0.69907 0.20577,-0.38449 0.82583,-0.98422 1.3779,-1.33273 0.55208,-0.34851 1.10994,-0.9129 1.23971,-1.2542 0.12976,-0.34131 0.61495,-0.89044 1.0782,-1.2203 0.46325,-0.32986 2.01806,-2.0195 3.45515,-3.75475 2.06158,-2.48933 2.9205,-3.7949 4.07089,-6.18783 0.80191,-1.66805 1.45802,-3.13275 1.45802,-3.25488 0,-0.12214 0.31005,-0.92149 0.689,-1.77634 1.78204,-4.01998 2.81588,-8.65777 2.85313,-12.79907 0.0402,-4.47159 -0.49921,-6.38156 -2.39498,-8.47995 -1.89589,-2.09852 -3.92588,-1.87416 -6.58888,0.72822 -1.34815,1.31746 -3.15514,4.17299 -3.73221,5.89789 -0.39243,1.17301 -0.42902,3.14662 -0.0849,4.58095 0.44063,1.83675 0.69494,5.60869 0.48847,7.245 -0.54747,4.3389 -1.69381,7.37643 -4.12487,10.92997 -1.30109,1.90185 -1.85892,2.44404 -4.12556,4.01 l -1.54271,1.06581 0.13655,4.93657 c 0.0751,2.71512 0.14425,4.96635 0.15365,5.00273 0.0488,0.18877 0.4242,-0.0433 1.92653,-1.19063 z m -38.83011,-6.39786 c 0.0837,-0.13547 0.0312,-0.32109 -0.11668,-0.41249 -0.14789,-0.0914 -0.2689,0.0194 -0.2689,0.2463 0,0.46475 0.15877,0.53318 0.38558,0.16619 z m 2.97016,-0.33248 c -0.0845,-0.21106 -0.14715,-0.14837 -0.15985,0.15986 -0.0115,0.27891 0.0511,0.43518 0.13896,0.34726 0.0879,-0.0879 0.0973,-0.31612 0.0209,-0.50712 z m -11.37708,-5.55625 c -0.0845,-0.21106 -0.14716,-0.14837 -0.15985,0.15986 -0.0115,0.27891 0.051,0.43518 0.13896,0.34726 0.0879,-0.0879 0.0973,-0.31612 0.0209,-0.50712 z m 1.93593,-4.71289 c 0,-0.14552 -0.12609,-0.26458 -0.2802,-0.26458 -0.15411,0 -0.20662,0.11906 -0.11668,0.26458 0.0899,0.14552 0.21603,0.26459 0.2802,0.26459 0.0642,0 0.11668,-0.11907 0.11668,-0.26459 z m -6.699423,-33.93281 c 3.836313,-4.80595 4.318093,-5.45979 4.110443,-5.57833 -0.10403,-0.0594 -1.08212,-0.18945 -2.173524,-0.28902 -3.683719,-0.33607 -4.623469,-0.45352 -6.879166,-0.85978 -1.236927,-0.22277 -2.546614,-0.4453 -2.910416,-0.4945 -1.014935,-0.13728 -4.566383,-0.92539 -4.788419,-1.06262 -0.108354,-0.067 -0.533802,-0.17191 -0.94544,-0.23321 -0.781539,-0.11639 -2.04927,-0.53116 -5.378641,-1.75974 -1.091406,-0.40274 -2.279286,-0.81669 -2.639733,-0.91988 -0.360447,-0.1032 -1.193884,-0.52384 -1.852083,-0.93476 l -1.196725,-0.74712 -0.08392,0.94648 c -0.06216,0.70113 0.07408,1.11466 0.525562,1.59524 0.774589,0.82452 6.796711,4.87637 9.744813,6.55659 1.236927,0.70497 2.963333,1.76584 3.836458,2.35749 1.302243,0.88243 7.775806,4.66431 7.984049,4.66431 0.03274,0 1.22377,-1.45852 2.646739,-3.24115 z m 25.287863,1.85209 c 0.62179,-0.47295 3.62915,-2.45493 6.68302,-4.40442 3.05387,-1.94948 6.38593,-4.0827 7.40458,-4.74049 2.49906,-1.61375 5.15937,-4.18472 5.15937,-4.98609 0,-0.74925 -0.3494,-0.7826 -1.28207,-0.12238 -1.48114,1.04848 -6.47625,2.93426 -10.65295,4.02176 -2.20754,0.57478 -2.46008,0.62808 -4.20456,0.88729 -0.65485,0.0973 -2.14313,0.34644 -3.30729,0.55363 -1.16417,0.2072 -3.54542,0.57183 -5.29167,0.81029 -1.74625,0.23847 -3.21944,0.47445 -3.27375,0.52441 -0.0543,0.0499 0.40836,0.66154 1.02816,1.35909 0.6198,0.69754 2.25229,2.54818 3.62775,4.11253 1.37546,1.56435 2.60839,2.84427 2.73986,2.84427 0.13146,0 0.74776,-0.38695 1.36955,-0.85989 z m -7.11305,-11.5858 c 2.45517,-0.28659 5.13407,-0.69334 5.95313,-0.90389 1.43415,-0.36867 5.01408,-1.13618 6.38397,-1.36867 0.68191,-0.11573 1.66003,-0.44389 3.04271,-1.02082 0.43657,-0.18216 1.74625,-0.660444 2.91042,-1.062854 2.89175,-0.999574 5.49449,-2.338724 6.74994,-3.472943 2.26088,-2.042569 4.59034,-6.016709 6.44802,-11.000555 1.3117,-3.519075 1.30361,-3.573292 -0.56411,-3.779314 -2.46698,-0.272125 -2.8992,-0.399348 -3.61711,-1.064683 -0.76181,-0.706022 -0.8617,-1.369605 -0.31807,-2.113062 0.32175,-0.440023 0.70801,-0.49434 3.30729,-0.465093 l 2.943,0.03311 v -2.099018 c 0,-2.423178 0.1019,-2.360479 -2.75828,-1.69716 -1.51127,0.350487 -1.84834,0.353575 -2.63676,0.02415 -0.97698,-0.40821 -1.36009,-1.152956 -1.10858,-2.155048 0.16893,-0.673049 0.38536,-0.757909 4.08724,-1.602572 l 1.94924,-0.444761 -0.14975,-1.088378 c -0.22043,-1.602062 -1.8537,-7.127502 -2.95015,-9.98052 -2.22441,-5.788047 -7.59021,-15.552044 -9.19672,-16.735038 l -0.72521,-0.53403 -2.18521,1.115579 c -1.20186,0.613568 -2.74388,1.525156 -3.42671,2.025751 -1.13816,0.8344 -1.22962,0.983489 -1.09861,1.790842 0.22758,1.402365 -0.35454,1.703104 -2.23232,1.153276 -1.53931,-0.450721 -6.21485,-1.416244 -6.93693,-1.432512 -0.21828,-0.0049 -1.34938,-0.141254 -2.51354,-0.302971 -3.6378,-0.505334 -4.52541,-0.556015 -9.47215,-0.540844 -6.59989,0.02024 -8.916495,0.09718 -8.91644,0.296146 9.4e-5,0.339916 -9.179318,2.429815 -10.099735,2.299432 -0.432671,-0.06129 -0.789692,-0.450892 -1.200343,-1.309882 -0.480948,-1.006037 -0.987253,-1.48354 -2.857855,-2.695284 -1.250346,-0.809952 -2.822926,-1.682523 -3.494623,-1.939046 l -1.221267,-0.466406 -1.534128,1.706482 c -2.531756,2.816187 -6.72565,10.937281 -8.6012,16.655439 -0.880546,2.684597 -2.740801,9.157188 -2.740801,9.536369 0,0.102164 1.010656,0.397845 2.245902,0.657069 3.631122,0.762013 4.499731,1.595869 3.278988,3.147793 -0.540134,0.686669 -0.639052,0.709119 -2.718876,0.617081 -1.187091,-0.05253 -2.311994,-0.190472 -2.499784,-0.306532 -0.18779,-0.116061 -0.376559,-0.169331 -0.419488,-0.118379 -0.04293,0.05095 -0.148572,1.138659 -0.234763,2.417127 l -0.156711,2.324487 2.87445,-0.07188 c 2.509924,-0.06277 2.944569,-0.0084 3.427366,0.4285 0.304104,0.27521 0.552916,0.784996 0.552916,1.132859 0,0.785735 -1.093765,1.917478 -1.906203,1.972392 -0.334036,0.02258 -1.14312,0.09385 -1.797964,0.158391 -0.654843,0.06454 -1.458515,0.135361 -1.785937,0.157387 -0.408048,0.02745 -0.593278,0.206504 -0.588844,0.569213 0.03648,2.984683 4.195328,10.725111 7.534357,14.022916 2.199511,2.172355 8.483383,4.749394 14.816465,6.076304 2.609896,0.54683 10.736808,1.68968 14.684378,2.065 1.86316,0.17714 7.1228,-0.10288 11.47539,-0.61096 z M 82.079706,76.317292 c -1.065039,-0.745982 -0.43483,-2.763122 0.863274,-2.763122 1.369284,0 1.911686,1.531097 0.91963,2.595943 -0.639828,0.686776 -0.993703,0.719958 -1.782904,0.167179 z M 78.316668,75.93542 c -0.291042,-0.291041 -0.529167,-0.713172 -0.529167,-0.938068 0,-0.449728 1.146662,-1.707765 1.556575,-1.707765 0.48312,0 1.089258,0.829974 1.089258,1.491501 0,1.581685 -1.093157,2.177842 -2.116666,1.154332 z m 53.999462,-0.240121 c -0.3045,-0.304496 -0.55363,-0.649935 -0.55363,-0.767642 0,-0.512714 0.7236,-1.126834 1.45521,-1.235041 0.43656,-0.06457 1.05144,-0.192886 1.36641,-0.285148 0.6962,-0.203941 1.22189,0.601459 1.09729,1.681141 -0.0676,0.585623 -0.22564,0.723406 -0.8762,0.763778 -0.43657,0.02709 -1.05064,0.127397 -1.3646,0.2229 -0.3936,0.119724 -0.74276,0.0017 -1.12448,-0.379988 z m 4.93647,-0.04566 c -0.89341,-0.520367 -0.36875,-2.363193 0.67077,-2.356006 0.7289,0.005 1.08623,0.236893 1.45985,0.94723 0.60579,1.151731 -0.88245,2.135766 -2.13062,1.408776 z m -35.01605,-1.467998 c -1.31976,-0.895619 -1.67611,-1.381286 -1.68647,-2.298516 -0.019,-1.683046 1.17813,-2.361866 1.98732,-1.126881 0.23124,0.352913 0.78474,0.76866 1.23001,0.923882 0.75253,0.262334 0.88399,0.207811 1.86558,-0.773775 l 1.05599,-1.055995 -0.95699,-1.059274 c -1.07975,-1.195151 -1.15407,-1.550556 -0.49397,-2.362195 0.64215,-0.789574 3.71817,-1.064374 5.15938,-0.460919 1.24608,0.521757 1.3081,1.283461 0.20919,2.569109 -0.43065,0.503826 -0.78784,1.10817 -0.79375,1.342988 -0.0149,0.593156 1.26681,1.81543 1.94355,1.853366 1.0853,0.06084 1.36104,-0.06621 2.17261,-1.001044 0.71379,-0.822201 0.89168,-0.905545 1.37768,-0.64545 0.6617,0.354135 1.01655,1.859308 0.61515,2.609332 -0.15328,0.286408 -0.7041,0.894257 -1.22405,1.350777 -0.80067,0.702997 -1.1562,0.830036 -2.32293,0.830036 -1.1483,0 -1.60696,-0.157995 -2.75599,-0.949363 l -1.37843,-0.949362 -0.87282,0.648239 c -1.8785,1.39516 -3.6161,1.583122 -5.13106,0.555045 z M 88.079847,71.402133 c -1.291266,-0.748885 -1.868975,-1.831536 -2.009201,-3.765325 -0.149487,-2.061509 0.39858,-3.146875 2.189129,-4.335241 1.422004,-0.943768 1.636457,-0.984415 3.079405,-0.583669 3.512997,0.975655 4.645965,5.389739 2.014119,7.847082 -1.507859,1.407882 -3.691626,1.754552 -5.273452,0.837153 z m 36.016033,-0.0118 c -3.43776,-2.343125 -2.91115,-7.205545 0.92182,-8.511568 1.47409,-0.502274 2.67259,-0.214915 4.01332,0.962263 1.70311,1.495357 2.13107,3.581131 1.1479,5.594706 -0.69665,1.426785 -1.9831,2.264302 -3.74848,2.440375 -1.19415,0.119101 -1.55827,0.04334 -2.33456,-0.485776 z M 41.01042,234.48953 c -0.218282,-0.0741 -0.724297,-0.4398 -1.12448,-0.81267 -0.976249,-0.90963 -1.011656,-2.43561 -0.07817,-3.3691 0.357188,-0.35719 0.83935,-0.64943 1.071473,-0.64943 0.848533,0 1.92347,0.79481 2.382118,1.76134 0.412917,0.87015 0.424994,1.07145 0.09911,1.65205 -0.443913,0.79089 -1.795219,1.60614 -2.350051,1.41781 z m 9.765736,-0.16332 c -0.345853,-0.17243 -0.742475,-0.63667 -0.881381,-1.03165 -0.542074,-1.54137 1.936078,-2.80062 2.874599,-1.46069 0.542494,0.77452 0.522074,1.61655 -0.05114,2.10886 -0.719397,0.61785 -1.258462,0.7243 -1.942075,0.38348 z m 130.860294,0.043 c -0.71944,-0.40797 -0.91722,-0.74841 -0.92199,-1.58706 -0.008,-1.42349 1.83279,-1.99896 3.01031,-0.94105 1.11061,0.9978 1.0236,1.93806 -0.22773,2.4609 -1.08609,0.45379 -1.1733,0.45694 -1.86059,0.0672 z M 34.140525,233.90899 c -0.18482,-0.34534 -0.187904,-0.73812 -0.0095,-1.20741 0.219721,-0.57791 0.404845,-0.68153 1.094491,-0.61263 0.493872,0.0493 0.984002,0.31617 1.21019,0.65884 0.341565,0.51746 0.324472,0.63159 -0.168412,1.12448 -0.693149,0.69315 -1.765569,0.71166 -2.126789,0.0367 z m 139.577865,-0.10613 c -0.37449,-0.37449 -0.68089,-0.91883 -0.68089,-1.20964 0,-1.54178 1.39533,-2.66688 2.69473,-2.17285 0.73701,0.28021 1.80318,1.48464 1.80318,2.03701 0,0.68724 -1.18987,1.71661 -2.16337,1.87155 -0.80987,0.1289 -1.08676,0.0408 -1.65365,-0.52607 z m -128.368804,-0.5462 c -1.001879,-1.00188 -1.083425,-1.41702 -0.49997,-2.54529 0.567975,-1.09835 1.286142,-1.42622 2.182719,-0.9965 1.518401,0.72775 1.738902,2.85925 0.40438,3.90898 -0.899272,0.70737 -1.036757,0.68318 -2.087129,-0.36719 z m 121.875014,0.0319 c -0.99021,-0.50105 -1.88319,-1.97521 -1.69874,-2.80433 0.20492,-0.92112 1.53965,-2.14885 2.33614,-2.14885 0.35034,0 1.0033,0.30824 1.45103,0.68498 0.65986,0.55524 0.81405,0.88599 0.81405,1.74625 0,0.85416 -0.17556,1.23683 -0.89958,1.96086 -1.00512,1.00511 -1.08254,1.0268 -2.0029,0.56109 z m -6.8668,-1.14024 c -0.67243,-0.56581 -0.81405,-0.87942 -0.81405,-1.80258 0,-2.94019 3.96521,-3.58499 4.74215,-0.77114 0.33631,1.21801 -0.0331,1.98424 -1.2997,2.69613 -1.29,0.72502 -1.64071,0.70868 -2.6284,-0.12241 z"
       id="path1" /></g></svg>
